<svg width="25" height="17" viewBox="0 0 25 17" fill="none" xmlns="http://www.w3.org/2000/svg">
<path d="M0.71875 0.34375V9.40625H24.2812V7.59375H13.4062V5.78125H24.2812V3.96875H13.4062V2.15625H24.2812V0.34375H0.71875ZM2.53125 1.25C2.7716 1.25 3.00211 1.34548 3.17207 1.51543C3.34202 1.68539 3.4375 1.9159 3.4375 2.15625C3.4375 2.3966 3.34202 2.62711 3.17207 2.79707C3.00211 2.96702 2.7716 3.0625 2.53125 3.0625C2.2909 3.0625 2.06039 2.96702 1.89043 2.79707C1.72048 2.62711 1.625 2.3966 1.625 2.15625C1.625 1.9159 1.72048 1.68539 1.89043 1.51543C2.06039 1.34548 2.2909 1.25 2.53125 1.25ZM6.15625 1.25C6.3966 1.25 6.62711 1.34548 6.79707 1.51543C6.96702 1.68539 7.0625 1.9159 7.0625 2.15625C7.0625 2.3966 6.96702 2.62711 6.79707 2.79707C6.62711 2.96702 6.3966 3.0625 6.15625 3.0625C5.9159 3.0625 5.68539 2.96702 5.51543 2.79707C5.34548 2.62711 5.25 2.3966 5.25 2.15625C5.25 1.9159 5.34548 1.68539 5.51543 1.51543C5.68539 1.34548 5.9159 1.25 6.15625 1.25ZM9.78125 1.25C10.0216 1.25 10.2521 1.34548 10.4221 1.51543C10.592 1.68539 10.6875 1.9159 10.6875 2.15625C10.6875 2.3966 10.592 2.62711 10.4221 2.79707C10.2521 2.96702 10.0216 3.0625 9.78125 3.0625C9.5409 3.0625 9.31039 2.96702 9.14043 2.79707C8.97048 2.62711 8.875 2.3966 8.875 2.15625C8.875 1.9159 8.97048 1.68539 9.14043 1.51543C9.31039 1.34548 9.5409 1.25 9.78125 1.25ZM4.34375 3.96875C4.5841 3.96875 4.81461 4.06423 4.98457 4.23418C5.15452 4.40414 5.25 4.63465 5.25 4.875C5.25 5.11535 5.15452 5.34586 4.98457 5.51582C4.81461 5.68577 4.5841 5.78125 4.34375 5.78125C4.1034 5.78125 3.87289 5.68577 3.70293 5.51582C3.53298 5.34586 3.4375 5.11535 3.4375 4.875C3.4375 4.63465 3.53298 4.40414 3.70293 4.23418C3.87289 4.06423 4.1034 3.96875 4.34375 3.96875ZM7.96875 3.96875C8.2091 3.96875 8.43961 4.06423 8.60957 4.23418C8.77952 4.40414 8.875 4.63465 8.875 4.875C8.875 5.11535 8.77952 5.34586 8.60957 5.51582C8.43961 5.68577 8.2091 5.78125 7.96875 5.78125C7.7284 5.78125 7.49789 5.68577 7.32793 5.51582C7.15798 5.34586 7.0625 5.11535 7.0625 4.875C7.0625 4.63465 7.15798 4.40414 7.32793 4.23418C7.49789 4.06423 7.7284 3.96875 7.96875 3.96875ZM11.5938 3.96875C11.8341 3.96875 12.0646 4.06423 12.2346 4.23418C12.4045 4.40414 12.5 4.63465 12.5 4.875C12.5 5.11535 12.4045 5.34586 12.2346 5.51582C12.0646 5.68577 11.8341 5.78125 11.5938 5.78125C11.3534 5.78125 11.1229 5.68577 10.9529 5.51582C10.783 5.34586 10.6875 5.11535 10.6875 4.875C10.6875 4.63465 10.783 4.40414 10.9529 4.23418C11.1229 4.06423 11.3534 3.96875 11.5938 3.96875ZM2.53125 6.6875C2.7716 6.6875 3.00211 6.78298 3.17207 6.95293C3.34202 7.12289 3.4375 7.3534 3.4375 7.59375C3.4375 7.8341 3.34202 8.06461 3.17207 8.23457C3.00211 8.40452 2.7716 8.5 2.53125 8.5C2.2909 8.5 2.06039 8.40452 1.89043 8.23457C1.72048 8.06461 1.625 7.8341 1.625 7.59375C1.625 7.3534 1.72048 7.12289 1.89043 6.95293C2.06039 6.78298 2.2909 6.6875 2.53125 6.6875ZM6.15625 6.6875C6.3966 6.6875 6.62711 6.78298 6.79707 6.95293C6.96702 7.12289 7.0625 7.3534 7.0625 7.59375C7.0625 7.8341 6.96702 8.06461 6.79707 8.23457C6.62711 8.40452 6.3966 8.5 6.15625 8.5C5.9159 8.5 5.68539 8.40452 5.51543 8.23457C5.34548 8.06461 5.25 7.8341 5.25 7.59375C5.25 7.3534 5.34548 7.12289 5.51543 6.95293C5.68539 6.78298 5.9159 6.6875 6.15625 6.6875ZM9.78125 6.6875C10.0216 6.6875 10.2521 6.78298 10.4221 6.95293C10.592 7.12289 10.6875 7.3534 10.6875 7.59375C10.6875 7.8341 10.592 8.06461 10.4221 8.23457C10.2521 8.40452 10.0216 8.5 9.78125 8.5C9.5409 8.5 9.31039 8.40452 9.14043 8.23457C8.97048 8.06461 8.875 7.8341 8.875 7.59375C8.875 7.3534 8.97048 7.12289 9.14043 6.95293C9.31039 6.78298 9.5409 6.6875 9.78125 6.6875ZM0.71875 11.2188V13.0312H24.2812V11.2188H0.71875ZM0.71875 14.8438V16.6562H24.2812V14.8438H0.71875Z" fill="#7B5406"/>
</svg>
